<?xml version="1.0" encoding="windows-1252" standalone="no"?>
<svg xmlns="http://www.w3.org/2000/svg" xmlns:xlink="http://www.w3.org/1999/xlink" contentStyleType="text/css" height="686px" preserveAspectRatio="none" style="width:1257px;height:686px;background:#FFFFFF;" version="1.1" viewBox="0 0 1257 686" width="1257px" zoomAndPan="magnify"><defs/><g><!--cluster HPO--><g id="cluster_HPO"><path d="M301.5,197.5 L335.5,197.5 A3.75,3.75 0 0 1 338,200 L345,219.7969 L564.5,219.7969 A2.5,2.5 0 0 1 567,222.2969 L567,502 A2.5,2.5 0 0 1 564.5,504.5 L301.5,504.5 A2.5,2.5 0 0 1 299,502 L299,200 A2.5,2.5 0 0 1 301.5,197.5 " fill="none" style="stroke:#000000;stroke-width:1.5;"/><line style="stroke:#000000;stroke-width:1.5;" x1="299" x2="345" y1="219.7969" y2="219.7969"/><text fill="#000000" font-family="sans-serif" font-size="14" font-weight="bold" lengthAdjust="spacing" textLength="33" x="303" y="212.4951">HPO</text></g><!--cluster SIDER--><g id="cluster_SIDER"><path d="M593.5,214 L640.5,214 A3.75,3.75 0 0 1 643,216.5 L650,236.2969 L1001.5,236.2969 A2.5,2.5 0 0 1 1004,238.7969 L1004,677 A2.5,2.5 0 0 1 1001.5,679.5 L593.5,679.5 A2.5,2.5 0 0 1 591,677 L591,216.5 A2.5,2.5 0 0 1 593.5,214 " fill="none" style="stroke:#000000;stroke-width:1.5;"/><line style="stroke:#000000;stroke-width:1.5;" x1="591" x2="650" y1="236.2969" y2="236.2969"/><text fill="#000000" font-family="sans-serif" font-size="14" font-weight="bold" lengthAdjust="spacing" textLength="46" x="595" y="228.9951">SIDER</text></g><!--cluster OMIM--><g id="cluster_OMIM"><path d="M1030.5,6 L1076.5,6 A3.75,3.75 0 0 1 1079,8.5 L1086,28.2969 L1247.5,28.2969 A2.5,2.5 0 0 1 1250,30.7969 L1250,339.5 A2.5,2.5 0 0 1 1247.5,342 L1030.5,342 A2.5,2.5 0 0 1 1028,339.5 L1028,8.5 A2.5,2.5 0 0 1 1030.5,6 " fill="none" style="stroke:#000000;stroke-width:1.5;"/><line style="stroke:#000000;stroke-width:1.5;" x1="1028" x2="1086" y1="28.2969" y2="28.2969"/><text fill="#000000" font-family="sans-serif" font-size="14" font-weight="bold" lengthAdjust="spacing" textLength="45" x="1032" y="20.9951">OMIM</text></g><!--cluster DRUGBANK--><g id="cluster_DRUGBANK"><path d="M96.5,14 L185.5,14 A3.75,3.75 0 0 1 188,16.5 L195,36.2969 L321.5,36.2969 A2.5,2.5 0 0 1 324,38.7969 L324,123.5 A2.5,2.5 0 0 1 321.5,126 L96.5,126 A2.5,2.5 0 0 1 94,123.5 L94,16.5 A2.5,2.5 0 0 1 96.5,14 " fill="none" style="stroke:#000000;stroke-width:1.5;"/><line style="stroke:#000000;stroke-width:1.5;" x1="94" x2="195" y1="36.2969" y2="36.2969"/><text fill="#000000" font-family="sans-serif" font-size="14" font-weight="bold" lengthAdjust="spacing" textLength="88" x="98" y="28.9951">DRUGBANK</text></g><!--cluster STITCH--><g id="cluster_STITCH"><path d="M8.5,559.5 L67.5,559.5 A3.75,3.75 0 0 1 70,562 L77,581.7969 L267.5,581.7969 A2.5,2.5 0 0 1 270,584.2969 L270,669 A2.5,2.5 0 0 1 267.5,671.5 L8.5,671.5 A2.5,2.5 0 0 1 6,669 L6,562 A2.5,2.5 0 0 1 8.5,559.5 " fill="none" style="stroke:#000000;stroke-width:1.5;"/><line style="stroke:#000000;stroke-width:1.5;" x1="6" x2="77" y1="581.7969" y2="581.7969"/><text fill="#000000" font-family="sans-serif" font-size="14" font-weight="bold" lengthAdjust="spacing" textLength="58" x="10" y="574.4951">STITCH</text></g><g id="elem_obo"><rect fill="#F1F1F1" height="109.7813" style="stroke:#181818;stroke-width:0.5;" width="235" x="315.5" y="232.5"/><text fill="#000000" font-family="sans-serif" font-size="14" lengthAdjust="spacing" textLength="63" x="401.5" y="247.4951">HPO.obo</text><line style="stroke:#181818;stroke-width:0.5;" x1="316.5" x2="549.5" y1="252.7969" y2="252.7969"/><ellipse cx="326.5" cy="266.4453" fill="none" rx="3" ry="3" style="stroke:#038048;stroke-width:1.0;"/><text fill="#000000" font-family="sans-serif" font-size="14" lengthAdjust="spacing" textLength="155" x="335.5" y="269.792">string: id -&gt; HP:&lt;int&gt;</text><rect fill="none" height="6" style="stroke:#C82930;stroke-width:1.0;" width="6" x="323.5" y="279.7422"/><text fill="#000000" font-family="sans-serif" font-size="14" lengthAdjust="spacing" textLength="209" x="335.5" y="286.0889">string: xref -&gt; &lt;code&gt;:&lt;int&gt;</text><rect fill="none" height="6" style="stroke:#C82930;stroke-width:1.0;" width="6" x="323.5" y="296.0391"/><text fill="#000000" font-family="sans-serif" font-size="14" lengthAdjust="spacing" textLength="167" x="335.5" y="302.3857">List&lt;String&gt;: Synonym</text><rect fill="none" height="6" style="stroke:#C82930;stroke-width:1.0;" width="6" x="323.5" y="312.3359"/><text fill="#000000" font-family="sans-serif" font-size="14" lengthAdjust="spacing" textLength="132" x="335.5" y="318.6826">string: Datasource</text><rect fill="none" height="6" style="stroke:#C82930;stroke-width:1.0;" width="6" x="323.5" y="328.6328"/><text fill="#000000" font-family="sans-serif" font-size="14" lengthAdjust="spacing" textLength="70" x="335.5" y="334.9795">int: Score</text></g><g id="elem_sqlite"><rect fill="#F1F1F1" height="60.8906" style="stroke:#181818;stroke-width:0.5;" width="174" x="323" y="427.5"/><text fill="#000000" font-family="sans-serif" font-size="14" lengthAdjust="spacing" textLength="75" x="372.5" y="442.4951">HPO.sqlite</text><line style="stroke:#181818;stroke-width:0.5;" x1="324" x2="496" y1="447.7969" y2="447.7969"/><ellipse cx="334" cy="461.4453" fill="none" rx="3" ry="3" style="stroke:#038048;stroke-width:1.0;"/><text fill="#000000" font-family="sans-serif" font-size="14" lengthAdjust="spacing" textLength="136" x="343" y="464.792">string: Sign_id #fff</text><rect fill="none" height="6" style="stroke:#C82930;stroke-width:1.0;" width="6" x="331" y="474.7422"/><text fill="#000000" font-family="sans-serif" font-size="14" lengthAdjust="spacing" textLength="148" x="343" y="481.0889">string: Disease_label</text></g><g id="elem_meddra_all_indication_tsv"><rect fill="#F1F1F1" height="77.1875" style="stroke:#181818;stroke-width:0.5;" width="261" x="607.5" y="419.5"/><text fill="#000000" font-family="sans-serif" font-size="14" lengthAdjust="spacing" textLength="233" x="621.5" y="434.4951">SIDER.meddra_all_indication_tsv</text><line style="stroke:#181818;stroke-width:0.5;" x1="608.5" x2="867.5" y1="439.7969" y2="439.7969"/><rect fill="none" height="6" style="stroke:#C82930;stroke-width:1.0;" width="6" x="615.5" y="450.4453"/><text fill="#000000" font-family="sans-serif" font-size="14" lengthAdjust="spacing" textLength="235" x="627.5" y="456.792">string: STITCH_flat -&gt; CID1&lt;int&gt;</text><rect fill="none" height="6" style="stroke:#C82930;stroke-width:1.0;" width="6" x="615.5" y="466.7422"/><text fill="#000000" font-family="sans-serif" font-size="14" lengthAdjust="spacing" textLength="218" x="627.5" y="473.0889">string: UMLS_concept_id_label</text><rect fill="none" height="6" style="stroke:#C82930;stroke-width:1.0;" width="6" x="615.5" y="483.0391"/><text fill="#000000" font-family="sans-serif" font-size="14" lengthAdjust="spacing" textLength="160" x="627.5" y="489.3857">string: Concept_name</text></g><g id="elem_meddra_all_se_tsv"><rect fill="#F1F1F1" height="77.1875" style="stroke:#181818;stroke-width:0.5;" width="261" x="607.5" y="249"/><text fill="#000000" font-family="sans-serif" font-size="14" lengthAdjust="spacing" textLength="178" x="649" y="263.9951">SIDER.meddra_all_se_tsv</text><line style="stroke:#181818;stroke-width:0.5;" x1="608.5" x2="867.5" y1="269.2969" y2="269.2969"/><rect fill="none" height="6" style="stroke:#C82930;stroke-width:1.0;" width="6" x="615.5" y="279.9453"/><text fill="#000000" font-family="sans-serif" font-size="14" lengthAdjust="spacing" textLength="235" x="627.5" y="286.292">string: STITCH_flat -&gt; CID1&lt;int&gt;</text><rect fill="none" height="6" style="stroke:#C82930;stroke-width:1.0;" width="6" x="615.5" y="296.2422"/><text fill="#000000" font-family="sans-serif" font-size="14" lengthAdjust="spacing" textLength="218" x="627.5" y="302.5889">string: UMLS_concept_id_label</text><rect fill="none" height="6" style="stroke:#C82930;stroke-width:1.0;" width="6" x="615.5" y="312.5391"/><text fill="#000000" font-family="sans-serif" font-size="14" lengthAdjust="spacing" textLength="101" x="627.5" y="318.8857">int: frequency</text></g><g id="elem_meddra_all_freq_tsv"><rect fill="#F1F1F1" height="77.1875" style="stroke:#181818;stroke-width:0.5;" width="261" x="666.5" y="586.5"/><text fill="#000000" font-family="sans-serif" font-size="14" lengthAdjust="spacing" textLength="192" x="701" y="601.4951">SIDER.meddra_all_freq_tsv</text><line style="stroke:#181818;stroke-width:0.5;" x1="667.5" x2="926.5" y1="606.7969" y2="606.7969"/><rect fill="none" height="6" style="stroke:#C82930;stroke-width:1.0;" width="6" x="674.5" y="617.4453"/><text fill="#000000" font-family="sans-serif" font-size="14" lengthAdjust="spacing" textLength="235" x="686.5" y="623.792">string: STITCH_flat -&gt; CID1&lt;int&gt;</text><rect fill="none" height="6" style="stroke:#C82930;stroke-width:1.0;" width="6" x="674.5" y="633.7422"/><text fill="#000000" font-family="sans-serif" font-size="14" lengthAdjust="spacing" textLength="218" x="686.5" y="640.0889">string: UMLS_concept_id_label</text><rect fill="none" height="6" style="stroke:#C82930;stroke-width:1.0;" width="6" x="674.5" y="650.0391"/><text fill="#000000" font-family="sans-serif" font-size="14" lengthAdjust="spacing" textLength="181" x="686.5" y="656.3857">string: Side_effect_name</text></g><g id="elem_omim_txt"><rect fill="#F1F1F1" height="77.1875" style="stroke:#181818;stroke-width:0.5;" width="128" x="1052" y="249"/><text fill="#000000" font-family="sans-serif" font-size="14" lengthAdjust="spacing" textLength="114" x="1059" y="263.9951">OMIM.omim_txt</text><line style="stroke:#181818;stroke-width:0.5;" x1="1053" x2="1179" y1="269.2969" y2="269.2969"/><ellipse cx="1063" cy="282.9453" fill="none" rx="3" ry="3" style="stroke:#038048;stroke-width:1.0;"/><text fill="#000000" font-family="sans-serif" font-size="14" lengthAdjust="spacing" textLength="69" x="1072" y="286.292">string: no</text><rect fill="none" height="6" style="stroke:#C82930;stroke-width:1.0;" width="6" x="1060" y="296.2422"/><text fill="#000000" font-family="sans-serif" font-size="14" lengthAdjust="spacing" textLength="62" x="1072" y="302.5889">string: ti</text><rect fill="none" height="6" style="stroke:#C82930;stroke-width:1.0;" width="6" x="1060" y="312.5391"/><text fill="#000000" font-family="sans-serif" font-size="14" lengthAdjust="spacing" textLength="66" x="1072" y="318.8857">string: cs</text></g><g id="elem_omim_csv"><rect fill="#F1F1F1" height="77.1875" style="stroke:#181818;stroke-width:0.5;" width="189" x="1044.5" y="41"/><text fill="#000000" font-family="sans-serif" font-size="14" lengthAdjust="spacing" textLength="115" x="1081.5" y="55.9951">OMIM.omim_csv</text><line style="stroke:#181818;stroke-width:0.5;" x1="1045.5" x2="1232.5" y1="61.2969" y2="61.2969"/><rect fill="none" height="6" style="stroke:#C82930;stroke-width:1.0;" width="6" x="1052.5" y="71.9453"/><text fill="#000000" font-family="sans-serif" font-size="14" lengthAdjust="spacing" textLength="105" x="1064.5" y="78.292">string: class_id</text><rect fill="none" height="6" style="stroke:#C82930;stroke-width:1.0;" width="6" x="1052.5" y="88.2422"/><text fill="#000000" font-family="sans-serif" font-size="14" lengthAdjust="spacing" textLength="163" x="1064.5" y="94.5889">string: preferred_label</text><rect fill="none" height="6" style="stroke:#C82930;stroke-width:1.0;" width="6" x="1052.5" y="104.5391"/><text fill="#000000" font-family="sans-serif" font-size="14" lengthAdjust="spacing" textLength="74" x="1064.5" y="110.8857">string: CUI</text></g><g id="elem_drugbank_txt"><rect fill="#F1F1F1" height="60.8906" style="stroke:#181818;stroke-width:0.5;" width="197" x="110.5" y="49"/><text fill="#000000" font-family="sans-serif" font-size="14" lengthAdjust="spacing" textLength="183" x="117.5" y="63.9951">DRUGBANK.drugbank_txt</text><line style="stroke:#181818;stroke-width:0.5;" x1="111.5" x2="306.5" y1="69.2969" y2="69.2969"/><rect fill="none" height="6" style="stroke:#C82930;stroke-width:1.0;" width="6" x="118.5" y="79.9453"/><text fill="#000000" font-family="sans-serif" font-size="14" lengthAdjust="spacing" textLength="122" x="130.5" y="86.292">string: ATC_code</text><rect fill="none" height="6" style="stroke:#C82930;stroke-width:1.0;" width="6" x="118.5" y="96.2422"/><text fill="#000000" font-family="sans-serif" font-size="14" lengthAdjust="spacing" textLength="130" x="130.5" y="102.5889">string: drug_name</text></g><g id="elem_chemical_sources_txt"><rect fill="#F1F1F1" height="60.8906" style="stroke:#181818;stroke-width:0.5;" width="231" x="22.5" y="594.5"/><text fill="#000000" font-family="sans-serif" font-size="14" lengthAdjust="spacing" textLength="210" x="33" y="609.4951">STITCH.chemical_sources_txt</text><line style="stroke:#181818;stroke-width:0.5;" x1="23.5" x2="252.5" y1="614.7969" y2="614.7969"/><rect fill="none" height="6" style="stroke:#C82930;stroke-width:1.0;" width="6" x="30.5" y="625.4453"/><text fill="#000000" font-family="sans-serif" font-size="14" lengthAdjust="spacing" textLength="205" x="42.5" y="631.792">string: STITCH_compound_id</text><rect fill="none" height="6" style="stroke:#C82930;stroke-width:1.0;" width="6" x="30.5" y="641.7422"/><text fill="#000000" font-family="sans-serif" font-size="14" lengthAdjust="spacing" textLength="122" x="42.5" y="648.0889">string: ATC_code</text></g><g id="elem_Record"><rect fill="#F1F1F1" height="109.7813" style="stroke:#181818;stroke-width:0.5;" width="158" x="490" y="24.5"/><text fill="#000000" font-family="sans-serif" font-size="14" lengthAdjust="spacing" textLength="51" x="543.5" y="39.4951">Record</text><line style="stroke:#181818;stroke-width:0.5;" x1="491" x2="647" y1="44.7969" y2="44.7969"/><rect fill="none" height="6" style="stroke:#C82930;stroke-width:1.0;" width="6" x="498" y="55.4453"/><text fill="#000000" font-family="sans-serif" font-size="14" lengthAdjust="spacing" textLength="122" x="510" y="61.792">string: Symptom</text><rect fill="none" height="6" style="stroke:#C82930;stroke-width:1.0;" width="6" x="498" y="71.7422"/><text fill="#000000" font-family="sans-serif" font-size="14" lengthAdjust="spacing" textLength="112" x="510" y="78.0889">string: Problem</text><rect fill="none" height="6" style="stroke:#C82930;stroke-width:1.0;" width="6" x="498" y="88.0391"/><text fill="#000000" font-family="sans-serif" font-size="14" lengthAdjust="spacing" textLength="129" x="510" y="94.3857">string: Treatment</text><rect fill="none" height="6" style="stroke:#C82930;stroke-width:1.0;" width="6" x="498" y="104.3359"/><text fill="#000000" font-family="sans-serif" font-size="14" lengthAdjust="spacing" textLength="132" x="510" y="110.6826">string: Datasource</text><rect fill="none" height="6" style="stroke:#C82930;stroke-width:1.0;" width="6" x="498" y="120.6328"/><text fill="#000000" font-family="sans-serif" font-size="14" lengthAdjust="spacing" textLength="70" x="510" y="126.9795">int: Score</text></g><!--link Record to obo--><g id="link_Record_obo"><path codeLine="54" d="M520.291,134.762 C512.476,144.398 504.749,154.542 498,164.5 C483.593,185.757 472.6074,205.2168 461.5184,226.8848 " fill="none" id="Record-to-obo" style="stroke:#FFA500;stroke-width:2.0;"/><polygon fill="#FFA500" points="458.785,232.226,466.446,226.0365,461.0629,227.775,459.3244,222.3919,458.785,232.226" style="stroke:#FFA500;stroke-width:2.0;"/><text fill="#FFA500" font-family="sans-serif" font-size="13" lengthAdjust="spacing" textLength="148" x="499" y="177.5669">Symptom (for disease)</text></g><!--link Record to omim_txt--><g id="link_Record_omim_txt"><path codeLine="55" d="M648.039,100.796 C728.851,121.455 858.046,154.232 970,181.5 C985.083,185.174 990.18,182.436 1004,189.5 C1033.09,204.366 1056.6149,224.134 1077.2349,244.536 " fill="none" id="Record-to-omim_txt" style="stroke:#FFA500;stroke-width:2.0;"/><polygon fill="#FFA500" points="1081.5,248.756,1077.9157,239.5825,1077.9457,245.2393,1072.289,245.2694,1081.5,248.756" style="stroke:#FFA500;stroke-width:2.0;"/><text fill="#FFA500" font-family="sans-serif" font-size="13" lengthAdjust="spacing" textLength="148" x="971" y="177.5669">Symptom (for disease)</text></g><!--link Record to meddra_all_se_tsv--><g id="link_Record_meddra_all_se_tsv"><path codeLine="56" d="M625.262,134.851 C634.476,144.476 643.712,154.594 652,164.5 C674.532,191.43 693.9818,219.0354 710.4288,243.7594 " fill="none" id="Record-to-meddra_all_se_tsv" style="stroke:#FFA500;stroke-width:2.0;"/><polygon fill="#FFA500" points="713.752,248.755,712.0976,239.0461,710.9827,244.592,705.4368,243.477,713.752,248.755" style="stroke:#FFA500;stroke-width:2.0;"/><text fill="#FFA500" font-family="sans-serif" font-size="13" lengthAdjust="spacing" textLength="167" x="666" y="177.5669">Symptom (for side effect)</text></g><!--link obo to sqlite--><g id="link_obo_sqlite"><path codeLine="58" d="M424.7844,348.6869 C420.9494,376.7789 418.0395,398.1021 414.8515,421.4571 " fill="none" id="obo-sqlite" style="stroke:#FF0000;stroke-width:2.0;"/><polygon fill="#FF0000" points="425.596,342.742,420.4154,351.1182,424.9197,347.696,428.3419,352.2003,425.596,342.742" style="stroke:#FF0000;stroke-width:2.0;"/><polygon fill="#FF0000" points="414.04,427.402,419.2205,419.0257,414.7162,422.4479,411.294,417.9437,414.04,427.402" style="stroke:#FF0000;stroke-width:2.0;"/><text fill="#FF0000" font-family="sans-serif" font-size="13" lengthAdjust="spacing" textLength="76" x="423" y="385.5669">ID = Sign_id</text></g><!--link obo to meddra_all_indication_tsv--><g id="link_obo_meddra_all_indication_tsv"><path codeLine="59" d="M530.762,342.51 C576.065,367.538 623.5461,393.7697 664.4811,416.3837 " fill="none" id="obo-to-meddra_all_indication_tsv" style="stroke:#181818;stroke-width:2.0;"/><polygon fill="#181818" points="669.733,419.285,663.7894,411.4317,665.3564,416.8672,659.921,418.4343,669.733,419.285" style="stroke:#181818;stroke-width:2.0;"/><text fill="#000000" font-family="sans-serif" font-size="13" lengthAdjust="spacing" textLength="21" x="614" y="385.5669">CUI</text></g><!--link meddra_all_indication_tsv to meddra_all_freq_tsv--><g id="link_meddra_all_indication_tsv_meddra_all_freq_tsv"><path codeLine="61" d="M753.5562,502.5037 C763.1502,529.3347 771.9268,553.8813 781.5068,580.6723 " fill="none" id="meddra_all_indication_tsv-meddra_all_freq_tsv" style="stroke:#008000;stroke-width:2.0;"/><polygon fill="#008000" points="751.536,496.854,750.7998,506.6753,753.2195,501.5621,758.3327,503.9817,751.536,496.854" style="stroke:#008000;stroke-width:2.0;"/><polygon fill="#008000" points="783.527,586.322,784.2631,576.5007,781.8435,581.6139,776.7302,579.1943,783.527,586.322" style="stroke:#008000;stroke-width:2.0;"/><text fill="#008000" font-family="sans-serif" font-size="13" lengthAdjust="spacing" textLength="47" x="769" y="539.5669">CUI/CID</text></g><!--link meddra_all_se_tsv to meddra_all_freq_tsv--><g id="link_meddra_all_se_tsv_meddra_all_freq_tsv"><path codeLine="62" d="M806.4167,329.6093 C838.1437,352.2403 868.529,380.703 886,419.5 C902.972,457.188 899.66,473.489 886,512.5 C876.259,540.318 860.43,561.9742 841.903,581.8872 " fill="none" id="meddra_all_se_tsv-meddra_all_freq_tsv" style="stroke:#008000;stroke-width:2.0;"/><polygon fill="#008000" points="801.532,326.125,806.5362,334.6078,805.6026,329.0285,811.1818,328.0949,801.532,326.125" style="stroke:#008000;stroke-width:2.0;"/><polygon fill="#008000" points="837.816,586.28,846.875,582.4155,841.2218,582.6194,841.018,576.9662,837.816,586.28" style="stroke:#008000;stroke-width:2.0;"/><text fill="#008000" font-family="sans-serif" font-size="13" lengthAdjust="spacing" textLength="47" x="899" y="462.5669">CUI/CID</text></g><!--link meddra_all_se_tsv to meddra_all_indication_tsv--><g id="link_meddra_all_se_tsv_meddra_all_indication_tsv"><path codeLine="63" d="M738,332.315 C738,360.065 738,385.591 738,413.312 " fill="none" id="meddra_all_se_tsv-meddra_all_indication_tsv" style="stroke:#008000;stroke-width:2.0;"/><polygon fill="#008000" points="738,326.315,734,335.315,738,331.315,742,335.315,738,326.315" style="stroke:#008000;stroke-width:2.0;"/><polygon fill="#008000" points="738,419.312,742,410.312,738,414.312,734,410.312,738,419.312" style="stroke:#008000;stroke-width:2.0;"/><text fill="#008000" font-family="sans-serif" font-size="13" lengthAdjust="spacing" textLength="47" x="739" y="385.5669">CUI/CID</text></g><!--link meddra_all_indication_tsv to chemical_sources_txt--><g id="link_meddra_all_indication_tsv_chemical_sources_txt"><path codeLine="64" d="M620.484,496.597 C602.609,502.075 584.345,507.536 567,512.5 C461.389,542.726 345.9874,572.4548 259.4024,594.1325 " fill="none" id="meddra_all_indication_tsv-to-chemical_sources_txt" style="stroke:#181818;stroke-width:2.0;"/><polygon fill="#181818" points="253.582,595.5897,263.284,597.2841,258.4323,594.3754,261.3411,589.5237,253.582,595.5897" style="stroke:#181818;stroke-width:2.0;"/><text fill="#000000" font-family="sans-serif" font-size="13" lengthAdjust="spacing" textLength="66" x="510" y="539.5669">CID1&lt;int&gt;</text></g><!--link omim_csv to omim_txt--><g id="link_omim_csv_omim_txt"><path codeLine="66" d="M1134.1142,124.2469 C1129.9642,161.4159 1124.9957,205.907 1120.8557,242.993 " fill="none" id="omim_csv-omim_txt" style="stroke:#0000FF;stroke-width:2.0;"/><polygon fill="#0000FF" points="1134.78,118.284,1129.806,126.7846,1134.2252,123.2531,1137.7566,127.6723,1134.78,118.284" style="stroke:#0000FF;stroke-width:2.0;"/><polygon fill="#0000FF" points="1120.19,248.956,1125.1638,240.4553,1120.7447,243.9869,1117.2132,239.5678,1120.19,248.956" style="stroke:#0000FF;stroke-width:2.0;"/><text fill="#0000FF" font-family="sans-serif" font-size="13" lengthAdjust="spacing" textLength="84" x="1130" y="177.5669">class_id = no</text></g><!--link chemical_sources_txt to drugbank_txt--><g id="link_chemical_sources_txt_drugbank_txt"><path codeLine="68" d="M135.058,594.352 C128.905,523.095 118.331,337.181 158,189.5 C165.534,161.454 177.0578,137.0012 188.6358,115.6892 " fill="none" id="chemical_sources_txt-to-drugbank_txt" style="stroke:#181818;stroke-width:2.0;"/><polygon fill="#181818" points="191.5,110.417,183.6889,116.4159,189.1132,114.8105,190.7185,120.2348,191.5,110.417" style="stroke:#181818;stroke-width:2.0;"/><text fill="#000000" font-family="sans-serif" font-size="13" lengthAdjust="spacing" textLength="64" x="133" y="385.5669">ATC_code</text></g><!--link drugbank_txt to Record--><g id="link_drugbank_txt_Record"><path codeLine="70" d="M307.848,79.5 C365.09,79.5 430.18,79.5 483.729,79.5 " fill="none" id="drugbank_txt-to-Record" style="stroke:#800080;stroke-width:1.0;stroke-dasharray:1.0,3.0;"/><polygon fill="#800080" points="489.729,79.5,480.729,75.5,484.729,79.5,480.729,83.5,489.729,79.5" style="stroke:#800080;stroke-width:1.0;"/><text fill="#800080" font-family="sans-serif" font-size="13" lengthAdjust="spacing" textLength="68" x="364.75" y="72.5669">Treatment</text></g><!--link omim_csv to Record--><g id="link_omim_csv_Record"><path codeLine="71" d="M1044.3,79.5 C933.471,79.5 757.956,79.5 654.256,79.5 " fill="none" id="omim_csv-to-Record" style="stroke:#800080;stroke-width:1.0;stroke-dasharray:1.0,3.0;"/><polygon fill="#800080" points="648.256,79.5,657.256,83.5,653.256,79.5,657.256,75.5,648.256,79.5" style="stroke:#800080;stroke-width:1.0;"/><text fill="#800080" font-family="sans-serif" font-size="13" lengthAdjust="spacing" textLength="100" x="796.25" y="72.5669">Problem/source</text></g><!--link sqlite to Record--><g id="link_sqlite_Record"><path codeLine="72" d="M322.873,437.057 C276.618,421.559 223.734,394.875 196,350 C158.498,289.32 153.215,246.578 196,189.5 C213.931,165.579 380.0022,123.8891 484.0732,99.6671 " fill="none" id="sqlite-to-Record" style="stroke:#800080;stroke-width:1.0;stroke-dasharray:1.0,3.0;"/><polygon fill="#800080" points="489.917,98.307,480.2445,96.4513,485.0472,99.4404,482.058,104.243,489.917,98.307" style="stroke:#800080;stroke-width:1.0;"/><text fill="#800080" font-family="sans-serif" font-size="13" lengthAdjust="spacing" textLength="100" x="197" y="292.0669">Problem/source</text></g><!--SRC=[nLPTRzCm57tFhx3K5n1g9bwxK6cqY4MiR6hQvyYnRuh1iJFRGQqG_nqdJbCdf8N146_kzVKvvtwcCliCnA0r4Aae-XOWDDL6CR6ReUHGb4OMlkb1oOn3pxHHW4q1mlZ69JPOoqeHgArC68jc2I3u7aX7UFjm7yfCDeolZiyOHTEvlPf5ziaS-OXx1Nbz6H59OUuvt35jegJncjUQXHI7uZUr-6Bq8sS6-deIjXEf5JN9yxm7oJHW3Id76V1JJ4cyVBSE2w1KuHHpdZ916S66IP4Q_NMGtKsyMTocESUcZciHBrytGVa-szLTaX8f29J6wcZvF8T5UoTm0HTqMAdFozzaCLVmM84WXmlCjSy_YZrX55B8SyixYFz-5Qz2MR0YDNlJhwYGFeHX_Y-Yno38K3pXM6khoBULjZj1AHWhqJO-mIxNs_TlRpv-2AcgTXaMNpg5dV_DPf7MFUxRQkzXZPiKXkGJ5BR5R8cR3jS_uxMv9h8ePINeG7Z7PeUXtG7JPWJTT4uu4p2J2eiTNDVdC9ESNXlOczQAkZs1NkHI8Uf6uoNouVe5UIRGSrt-T7XjEmcvJh8KmJ7uw9Y9TZKuO5la8QerMSXuYTuSDqQ7CIfqi1Oc7HnoxHBywaKq2jlDcXEwKm1YABKnEfehEtR1kIJ-BuQnrFmXpm2geRimDFqgT1ifw6-2w4mxEs6DsenNu2JM9tHQ6BOzxFe9BeceqSTtH4zUDxN1kBD5QGV5FQFIcBPjPsMbIjuAT6VaVyJxuJuPgFs3SDL-SBtf-Kke7m00]--></g><script xmlns="" id="bw-fido2-page-script"/></svg>